<svg enable-background="new 0 0 1826.7 472" viewBox="0 0 1826.7 472" xmlns="http://www.w3.org/2000/svg"><path d="m487.3 164.7 15.7 52.5-12.3 46 82.7-20.4 52.9-28.6 16.1-89.9-30.9-91.6-32.1 110.7-20.9 20.5z" fill="#89c140"/><path d="m249.9 164.7-15.8 52.5 12.4 46-82.7-20.4-52.9-28.6-16.2-89.9 30.9-91.6 32.2 110.7 20.8 20.5z" fill="#89c140"/><g fill="#222629"><path d="m793.9 111.6h-35.6v103.4h-29.4v-103.4h-35.7v-23.3h100.7z"/><path d="m921.4 151.6c0 9.2-1.6 17.7-4.7 25.6-3.2 7.9-7.6 14.7-13.3 20.6-5.7 5.8-12.6 10.4-20.7 13.7s-17.1 5-26.9 5c-9.9 0-18.8-1.7-26.9-5s-15.1-7.9-20.8-13.7c-5.8-5.8-10.2-12.7-13.4-20.6s-4.7-16.4-4.7-25.6 1.6-17.7 4.7-25.6c3.2-7.9 7.6-14.7 13.4-20.5s12.7-10.3 20.8-13.6 17.1-5 26.9-5 18.8 1.7 26.9 5 15 7.9 20.7 13.7 10.2 12.6 13.3 20.5 4.7 16.4 4.7 25.5zm-30.1 0c0-6.3-.8-11.9-2.4-16.9s-4-9.3-7-12.7-6.8-6.1-11.2-8-9.4-2.8-15-2.8c-5.7 0-10.7.9-15.2 2.8-4.4 1.9-8.2 4.5-11.2 8s-5.4 7.7-7 12.7-2.4 10.6-2.4 16.9.8 12 2.4 17 4 9.3 7 12.7 6.8 6.1 11.2 8 9.5 2.7 15.2 2.7c5.6 0 10.6-.9 15-2.7s8.1-4.5 11.2-8 5.4-7.7 7-12.7 2.4-10.7 2.4-17z"/><path d="m1033.6 215h-26.6c-4.9 0-8.5-1.9-10.6-5.6l-21-36.8c-1-1.6-2.1-2.7-3.3-3.4s-3-1.1-5.2-1.1h-7.5v46.9h-29.4v-126.7h41.2c9.2 0 17 .9 23.4 2.8 6.5 1.9 11.7 4.5 15.8 7.9s7.1 7.3 8.9 11.9c1.9 4.6 2.8 9.6 2.8 14.9 0 4.1-.6 8-1.7 11.6-1.1 3.7-2.7 7-4.9 10.1-2.1 3.1-4.8 5.9-8 8.3s-6.8 4.4-10.9 6c1.9 1 3.7 2.2 5.4 3.7s3.2 3.2 4.5 5.3zm-62.4-67.1c4 0 7.4-.5 10.2-1.5s5.1-2.4 6.9-4.2 3.1-3.9 3.9-6.3 1.2-5 1.2-7.8c0-5.6-1.8-9.9-5.4-13s-9.2-4.7-16.8-4.7h-11.8v37.5z"/><path d="m1157.6 151.6c0 9.2-1.6 17.7-4.7 25.6-3.2 7.9-7.6 14.7-13.3 20.6s-12.6 10.4-20.7 13.7-17.1 5-26.9 5-18.8-1.7-26.9-5-15.1-7.9-20.8-13.7-10.2-12.7-13.4-20.6-4.7-16.4-4.7-25.6 1.6-17.7 4.7-25.6c3.2-7.9 7.6-14.7 13.4-20.5s12.7-10.3 20.8-13.6 17.1-5 26.9-5 18.8 1.7 26.9 5 15 7.9 20.7 13.7 10.2 12.6 13.3 20.5c3.2 7.9 4.7 16.4 4.7 25.5zm-30 0c0-6.3-.8-11.9-2.4-16.9s-4-9.3-7-12.7-6.8-6.1-11.2-8-9.4-2.8-15-2.8c-5.7 0-10.7.9-15.2 2.8-4.4 1.9-8.2 4.5-11.2 8s-5.4 7.7-7 12.7-2.4 10.6-2.4 16.9.8 12 2.4 17 4 9.3 7 12.7 6.8 6.1 11.2 8c4.4 1.8 9.5 2.7 15.2 2.7 5.6 0 10.6-.9 15-2.7s8.1-4.5 11.2-8 5.4-7.7 7-12.7 2.4-10.7 2.4-17z"/><path d="m1251.6 182.2c.7 0 1.4.1 2.1.4s1.4.7 2 1.3l11.6 12.3c-5.1 6.7-11.5 11.7-19.2 15.1s-16.8 5.1-27.2 5.1c-9.6 0-18.2-1.6-25.9-4.9-7.6-3.3-14.1-7.8-19.4-13.6s-9.4-12.6-12.2-20.5-4.3-16.5-4.3-25.8c0-9.4 1.5-18.1 4.6-26s7.4-14.7 13-20.5c5.6-5.7 12.2-10.2 20-13.4s16.3-4.8 25.6-4.8c4.8 0 9.2.4 13.4 1.3s8.1 2 11.8 3.5 7 3.3 10.1 5.3 5.8 4.3 8.2 6.8l-9.9 13.3c-.6.8-1.4 1.6-2.3 2.2s-2.1 1-3.7 1c-1 0-2-.2-3-.7-.9-.5-1.9-1-3-1.7s-2.2-1.4-3.4-2.2-2.7-1.5-4.4-2.2-3.7-1.2-6-1.7-5-.7-8-.7c-4.9 0-9.3.9-13.3 2.7s-7.5 4.4-10.4 7.9c-2.9 3.4-5.2 7.7-6.8 12.7s-2.4 10.7-2.4 17.2.9 12.3 2.7 17.3 4.2 9.3 7.2 12.7 6.6 6.1 10.6 7.9c4.1 1.8 8.4 2.7 13 2.7 2.7 0 5.1-.1 7.3-.4s4.3-.7 6.2-1.3 3.7-1.4 5.4-2.4 3.4-2.3 5.1-3.9c.7-.6 1.4-1.1 2.3-1.4.9-.4 1.7-.6 2.6-.6z"/><path d="m1382.1 88.3v126.7h-29.6v-53.6h-51.5v53.6h-29.5v-126.7h29.5v53h51.5v-53z"/><path d="m1511.5 215h-22.8c-2.6 0-4.6-.6-6.2-1.8s-2.8-2.7-3.6-4.6l-7.5-22.1h-48.2l-7.5 22.1c-.6 1.6-1.8 3.1-3.4 4.4s-3.7 2-6.1 2h-22.9l49-126.6h30.1zm-46.7-48.4-11.7-34.7c-.9-2.2-1.8-4.8-2.8-7.8s-2-6.2-3-9.7c-.9 3.5-1.8 6.8-2.8 9.8s-1.9 5.6-2.8 7.8l-11.6 34.5h34.7z"/><path d="m1512.8 88.3h29.6v126.6h-29.6z"/><path d="m1668.7 88.3v126.7h-15.3c-2.3 0-4.2-.4-5.7-1.1s-3.1-2-4.6-3.8l-59.7-75.5c.2 2.3.4 4.4.5 6.6.1 2.1.1 4.1.1 6v67.8h-25.9v-126.7h15.5c1.3 0 2.3.1 3.2.2s1.7.3 2.3.7 1.4.8 2 1.3c.6.6 1.4 1.4 2.2 2.3l60.2 76.1c-.3-2.4-.5-4.8-.6-7.1s-.2-4.4-.2-6.5v-67z"/><path d="m921.7 265.9v55.9h58.7v4.1h-58.7v58.1h-4.8v-122.2h72.2v4.1z"/><path d="m1002.5 298.3h4.5v85.7h-4.5z"/><path d="m1034.4 314.9c4-5.5 8.8-9.9 14.3-13.1s11.6-4.9 18.1-4.9c4.8 0 8.9.7 12.5 2.2s6.5 3.6 8.9 6.3c2.3 2.8 4.1 6.1 5.3 10.1s1.8 8.5 1.8 13.6v54.9h-4.6v-54.8c0-4.5-.5-8.5-1.5-12s-2.5-6.5-4.6-9-4.6-4.3-7.7-5.6-6.7-2-10.9-2c-6.3 0-12 1.6-17.3 4.9s-10 7.8-14.1 13.6v64.9h-4.6v-85.7h2.2c1.1 0 1.7.6 1.7 1.7z"/><path d="m1113.7 310.5c4.3-4.4 8.8-7.8 13.5-10.1s10.1-3.5 16.1-3.5c4.5 0 8.3.7 11.6 2.1s6 3.5 8.2 6.1 3.8 5.9 4.8 9.7 1.6 8.1 1.6 12.8v56.4h-1.6c-1.2 0-1.8-.6-2-1.8l-.9-12.7c-2.4 2.4-4.8 4.6-7.1 6.6-2.4 2-4.9 3.6-7.6 5s-5.5 2.4-8.6 3.2-6.5 1.1-10.2 1.1c-2.7 0-5.4-.4-8.1-1.2s-5.1-2.1-7.2-3.8-3.9-4-5.2-6.7c-1.3-2.8-2-6.1-2-10 0-3.8 1.1-7.2 3.3-10.3s5.5-5.7 10.1-8c4.6-2.2 10.4-4 17.4-5.3s15.4-2.1 25-2.3v-10.2c0-8.6-1.9-15.2-5.6-20s-9.2-7.1-16.5-7.1c-4.3 0-8.1.6-11.2 1.9-3.1 1.2-5.7 2.6-7.8 4.2-2.1 1.5-3.8 2.9-5 4.2-1.2 1.2-2.2 1.9-2.8 1.9s-1.1-.3-1.6-1zm51.3 30.5c-17.5.6-30.4 2.8-38.8 6.5-8.4 3.8-12.6 9.1-12.6 15.9 0 3.2.5 5.9 1.6 8.3 1.1 2.3 2.5 4.2 4.3 5.8 1.8 1.5 3.8 2.7 6 3.4 2.3.7 4.6 1.1 7 1.1 3.7 0 7.1-.4 10.2-1.3 3.1-.8 5.9-2 8.5-3.4s5-3.2 7.3-5.1c2.3-2 4.4-4.1 6.5-6.3z"/><path d="m1195 314.9c4-5.5 8.8-9.9 14.3-13.1s11.6-4.9 18.1-4.9c4.8 0 8.9.7 12.5 2.2s6.5 3.6 8.9 6.3c2.3 2.8 4.1 6.1 5.3 10.1s1.8 8.5 1.8 13.6v54.9h-4.6v-54.8c0-4.5-.5-8.5-1.5-12s-2.5-6.5-4.6-9-4.6-4.3-7.7-5.6-6.7-2-10.9-2c-6.3 0-12 1.6-17.3 4.9s-10 7.8-14.1 13.6v64.9h-4.6v-85.7h2.2c1.1 0 1.7.6 1.7 1.7z"/><path d="m1333.3 307.7c-.2.2-.3.3-.5.5-.2.1-.4.2-.7.2-.5 0-1.2-.4-2.2-1.2s-2.3-1.7-4.1-2.7-3.9-1.9-6.6-2.7-5.9-1.2-9.6-1.2c-5.3 0-10.1.9-14.2 2.8s-7.6 4.6-10.5 8.1-5.1 7.8-6.6 12.8-2.3 10.6-2.3 16.9c0 6.4.8 12.2 2.3 17.2s3.7 9.2 6.5 12.6 6.2 6 10.2 7.8 8.4 2.7 13.3 2.7c4.4 0 8.1-.5 11.1-1.5s5.5-2.1 7.4-3.4c2-1.2 3.5-2.4 4.5-3.4s1.8-1.5 2.3-1.5.8.2 1.1.5l1 1.3c-1 1.4-2.5 2.9-4.3 4.3s-3.9 2.6-6.3 3.7-5.1 1.9-8 2.6-6 1-9.3 1c-5.5 0-10.5-1-14.9-3-4.5-2-8.3-4.8-11.4-8.6-3.2-3.8-5.6-8.4-7.3-13.8s-2.6-11.6-2.6-18.5c0-6.6.9-12.6 2.6-18.1 1.7-5.4 4.2-10.1 7.4-14s7.2-6.9 11.9-9 10.1-3.2 16.1-3.2c5.3 0 10.1.9 14.3 2.6s7.8 4 10.8 6.7z"/><path d="m1350.5 298.3h4.5v85.7h-4.5z"/><path d="m1375.5 310.5c4.3-4.4 8.8-7.8 13.5-10.1s10.1-3.5 16.1-3.5c4.5 0 8.3.7 11.6 2.1s6 3.5 8.2 6.1 3.8 5.9 4.8 9.7 1.6 8.1 1.6 12.8v56.4h-1.6c-1.2 0-1.8-.6-2-1.8l-.9-12.7c-2.4 2.4-4.8 4.6-7.1 6.6-2.4 2-4.9 3.6-7.6 5s-5.5 2.4-8.6 3.2-6.5 1.1-10.2 1.1c-2.7 0-5.4-.4-8.1-1.2s-5.1-2.1-7.2-3.8-3.9-4-5.2-6.7c-1.3-2.8-2-6.1-2-10 0-3.8 1.1-7.2 3.3-10.3s5.5-5.7 10.1-8c4.6-2.2 10.4-4 17.4-5.3s15.4-2.1 25-2.3v-10.2c0-8.6-1.9-15.2-5.6-20s-9.2-7.1-16.5-7.1c-4.3 0-8.1.6-11.2 1.9-3.1 1.2-5.7 2.6-7.8 4.2-2.1 1.5-3.8 2.9-5 4.2-1.2 1.2-2.2 1.9-2.8 1.9s-1.1-.3-1.6-1zm51.3 30.5c-17.5.6-30.4 2.8-38.8 6.5-8.4 3.8-12.6 9.1-12.6 15.9 0 3.2.5 5.9 1.6 8.3 1.1 2.3 2.5 4.2 4.3 5.8 1.8 1.5 3.8 2.7 6 3.4 2.3.7 4.6 1.1 7 1.1 3.7 0 7.1-.4 10.2-1.3 3.1-.8 5.9-2 8.5-3.4s5-3.2 7.3-5.1 4.4-4.1 6.5-6.3z"/><path d="m1453.3 258.3h4.5v125.7h-4.5z"/><circle cx="1004.8" cy="284.2" r="3.2"/><circle cx="1352.8" cy="284.2" r="3.2"/></g><path d="m305.3 412.1 38.9 20.3 8.2 8.7 16.2 2.4 16.2-2.4 8.2-8.7 38.9-20.3 55.1-139.4 48.5 21.1 31.1-18.8-28.4-15.4-47.5 3.6 12.4-46-15.8-52.5-118.7-21.8-118.7 21.8-15.8 52.5 12.4 46-47.5-3.6-28.4 15.4 31.1 18.8 48.6-21.1z" fill="#6d6b6c"/><path d="m490.7 263.2 12.3-46 70.4 25.6z" fill="#89c140"/><path d="m487.3 164.7 15.7 52.5 55.5-53.3z" fill="#7db13a"/><path d="m573.4 242.8 30.7-50.4-101.1 24.8z" fill="#7db13a"/><path d="m579.4 143.4-76.4 73.8 101.1-24.8z" fill="#89c140"/><path d="m579.4 143.4 32.1-110.7-7.4 159.7z" fill="#99c756"/><path d="m642.4 124.3-30.9-91.6-7.4 159.7z" fill="#a9cf73"/><path d="m573.4 242.8 52.9-28.6-22.2-21.8z" fill="#89c140"/><path d="m642.4 124.3-16.1 89.9-22.2-21.8z" fill="#99c756"/><path d="m503 217.2-134.4 79 42 19.2 50.9-5.3 29.2-46.9z" fill="#4a4a4c"/><path d="m461.5 310.1 7.7 8.1-37.4 93.9 9.5-99.9z" fill="#575757"/><path d="m410.6 315.4-42-19.2 63.2 115.9z" fill="#6d6b6c"/><path d="m487.3 164.7 15.7 52.5-134.4-74.3z" fill="#727071"/><path d="m490.7 263.2-21.5 55-7.7-8.1z" fill="#575757"/><path d="m441.3 312.2-30.7 3.2 21.2 96.7z" fill="#545253"/><path d="m393 432.5 1.5-8.9 30.4-24.5 6.9 13z" fill="#575757"/><path d="m405.7 363.1h-37.1v80.4l16.1-2.4 8.3-8.6 31.9-33.4z" fill="#4a4a4c"/><path d="m368.6 296.2v66.9h37.1z" fill="#575757"/><path d="m246.5 263.2-12.4-46-70.3 25.6z" fill="#89c140"/><path d="m249.9 164.7-15.8 52.5-55.5-53.3z" fill="#7db13a"/><path d="m163.8 242.8-30.7-50.4 101 24.8z" fill="#7db13a"/><path d="m157.8 143.4 76.3 73.8-101-24.8z" fill="#89c140"/><path d="m157.8 143.4-32.2-110.7 7.5 159.7z" fill="#99c756"/><path d="m94.7 124.3 30.9-91.6 7.5 159.7z" fill="#a9cf73"/><path d="m163.8 242.8-52.9-28.6 22.2-21.8z" fill="#89c140"/><path d="m94.7 124.3 16.2 89.9 22.2-21.8z" fill="#99c756"/><path d="m234.1 217.2 134.5 79-42.1 19.2-50.8-5.3-29.2-46.9z" fill="#4a4a4c"/><path d="m249.9 164.7-15.8 52.5 134.5-74.3z" fill="#727071"/><path d="m246.5 263.2 21.5 55 7.7-8.1z" fill="#575757"/><path d="m275.7 310.1-7.7 8.1 37.3 93.9-9.5-99.9z" fill="#575757"/><path d="m326.5 315.4 42.1-19.2-63.3 115.9z" fill="#6d6b6c"/><path d="m295.8 312.2 30.7 3.2-21.2 96.7z" fill="#545253"/><path d="m344.2 432.5-1.5-8.9-30.4-24.5-7 13z" fill="#575757"/><path d="m331.4 363.1h37.2v80.4l-16.2-2.4-8.2-8.6-31.9-33.4z" fill="#4a4a4c"/><path d="m368.6 296.2v66.9h-37.2z" fill="#575757"/><path d="m362.2 290.7h12.7v19h-12.7z" fill="#575757"/><path d="m503 217.2-134.4-74.3v153.3z" fill="#575757"/><path d="m234.1 217.2 134.5-74.3v153.3z" fill="#575757"/><path d="m441.3 183.1-51.6 36.4-21.1-76.6z" fill="#626162"/><path d="m295.8 183.1 51.7 36.4 21.1-76.6z" fill="#626162"/><path d="m347.5 219.5 21.1-76.6 21.1 76.6z" fill="#626162"/><path d="m170.6 275.1 31 18.7 28.2-12.1z" fill="#6d6b6c"/><path d="m199 259.6-28.4 15.5 59.2 6.6z" fill="#575757"/><path d="m250.2 272.7-51.2-13.1 30.8 22.1z" fill="#4a4a4c"/><path d="m246.5 263.2-47.5-3.6 51.2 13.1z" fill="#545253"/><path d="m566.6 275-31.1 18.8-28.1-12.1z" fill="#6d6b6c"/><path d="m538.2 259.6 28.4 15.4-59.2 6.7z" fill="#575757"/><path d="m486.9 272.7 51.3-13.1-30.8 22.1z" fill="#4a4a4c"/><path d="m490.7 263.2 47.5-3.6-51.3 13.1z" fill="#545253"/><path d="m337.8 384.4 9.5 4.4-7 27.5z" fill="#222629"/><path d="m399 384.4-9.5 4.4 7 27.5z" fill="#222629"/></svg>