<svg enable-background="new 0 0 631 631" viewBox="0 0 631 631" xmlns="http://www.w3.org/2000/svg"><path d="m0 0h631v631h-631z" fill="#222629"/><path d="m437.4 223.8 15.8 52.6-12.4 45.9 82.7-20.3 52.9-28.7 16.2-89.8-30.9-91.6-32.2 110.6-20.8 20.6z" fill="#89c140"/><path d="m200 223.8-15.8 52.5 12.4 46-82.7-20.3-52.9-28.7-16.1-89.9 30.9-91.6 32.1 110.7 20.9 20.6z" fill="#89c140"/><g fill="#fff"><path d="m168.2 129h-12.3v35.7h-10.1v-35.7h-12.3v-8h34.7z"/><path d="m215.2 142.8c0 3.2-.5 6.1-1.6 8.8s-2.6 5.1-4.6 7.1-4.4 3.6-7.2 4.7-5.9 1.7-9.3 1.7-6.5-.6-9.3-1.7-5.2-2.7-7.2-4.7-3.5-4.4-4.6-7.1-1.6-5.7-1.6-8.8.5-6.1 1.6-8.8 2.6-5.1 4.6-7.1 4.4-3.6 7.2-4.7 5.9-1.7 9.3-1.7 6.5.6 9.3 1.7 5.2 2.7 7.2 4.7 3.5 4.4 4.6 7.1 1.6 5.6 1.6 8.8zm-10.3 0c0-2.2-.3-4.1-.8-5.8-.6-1.7-1.4-3.2-2.4-4.4s-2.3-2.1-3.9-2.8c-1.5-.6-3.3-1-5.2-1-2 0-3.7.3-5.2 1-1.5.6-2.8 1.6-3.9 2.8-1 1.2-1.9 2.7-2.4 4.4-.6 1.7-.8 3.7-.8 5.8 0 2.2.3 4.1.8 5.9.6 1.7 1.4 3.2 2.4 4.4s2.3 2.1 3.9 2.7 3.3.9 5.2.9 3.7-.3 5.2-.9 2.8-1.5 3.9-2.7c1-1.2 1.9-2.7 2.4-4.4.5-1.8.8-3.7.8-5.9z"/><path d="m257 164.6h-9.2c-1.7 0-2.9-.6-3.7-1.9l-7.3-12.7c-.3-.5-.7-.9-1.1-1.2s-1-.4-1.8-.4h-2.6v16.2h-10.1v-43.7h14.2c3.2 0 5.9.3 8.1 1s4 1.6 5.5 2.7 2.4 2.5 3.1 4.1c.6 1.6 1 3.3 1 5.2 0 1.4-.2 2.8-.6 4-.4 1.3-.9 2.4-1.7 3.5-.7 1.1-1.7 2-2.7 2.9-1.1.8-2.3 1.5-3.8 2.1.7.3 1.3.8 1.9 1.3s1.1 1.1 1.6 1.8zm-21.6-23.1c1.4 0 2.6-.2 3.5-.5 1-.4 1.8-.8 2.4-1.5.6-.6 1.1-1.3 1.3-2.2.3-.8.4-1.7.4-2.7 0-1.9-.6-3.4-1.9-4.5s-3.2-1.6-5.8-1.6h-4.1v13z"/><path d="m302.8 142.8c0 3.2-.5 6.1-1.6 8.8s-2.6 5.1-4.6 7.1-4.4 3.6-7.2 4.7-5.9 1.7-9.3 1.7-6.5-.6-9.3-1.7-5.2-2.7-7.2-4.7-3.5-4.4-4.6-7.1-1.6-5.7-1.6-8.8.5-6.1 1.6-8.8 2.6-5.1 4.6-7.1 4.4-3.6 7.2-4.7 5.9-1.7 9.3-1.7 6.5.6 9.3 1.7 5.2 2.7 7.2 4.7 3.5 4.4 4.6 7.1 1.6 5.6 1.6 8.8zm-10.3 0c0-2.2-.3-4.1-.8-5.8-.6-1.7-1.4-3.2-2.4-4.4s-2.3-2.1-3.9-2.8c-1.5-.6-3.3-1-5.2-1-2 0-3.7.3-5.2 1-1.5.6-2.8 1.6-3.9 2.8-1 1.2-1.9 2.7-2.4 4.4-.6 1.7-.8 3.7-.8 5.8 0 2.2.3 4.1.8 5.9.6 1.7 1.4 3.2 2.4 4.4s2.3 2.1 3.9 2.7 3.3.9 5.2.9 3.7-.3 5.2-.9 2.8-1.5 3.9-2.7c1-1.2 1.9-2.7 2.4-4.4.5-1.8.8-3.7.8-5.9z"/><path d="m338.3 153.3c.2 0 .5 0 .7.1s.5.2.7.5l4 4.2c-1.8 2.3-4 4-6.6 5.2s-5.8 1.8-9.4 1.8c-3.3 0-6.3-.6-8.9-1.7s-4.9-2.7-6.7-4.7-3.2-4.4-4.2-7.1-1.5-5.7-1.5-8.9c0-3.3.5-6.3 1.6-9s2.6-5.1 4.5-7.1 4.2-3.5 6.9-4.6 5.6-1.7 8.9-1.7c1.6 0 3.2.1 4.6.4s2.8.7 4.1 1.2 2.4 1.1 3.5 1.8 2 1.5 2.8 2.3l-3.4 4.6c-.2.3-.5.5-.8.8-.3.2-.7.3-1.3.3-.4 0-.7-.1-1-.2-.3-.2-.7-.4-1-.6-.4-.2-.8-.5-1.2-.8s-.9-.5-1.5-.8c-.6-.2-1.3-.4-2.1-.6s-1.7-.2-2.8-.2c-1.7 0-3.2.3-4.6.9s-2.6 1.5-3.6 2.7-1.8 2.7-2.3 4.4-.8 3.7-.8 5.9.3 4.2.9 6c.6 1.7 1.4 3.2 2.5 4.4 1 1.2 2.3 2.1 3.7 2.7s2.9.9 4.5.9c.9 0 1.8 0 2.5-.1.8-.1 1.5-.2 2.1-.5s1.3-.5 1.9-.8 1.2-.8 1.8-1.3c.2-.2.5-.4.8-.5.1.2.4.1.7.1z"/><path d="m386.3 120.9v43.7h-10.2v-18.5h-17.8v18.5h-10.2v-43.7h10.2v18.3h17.8v-18.3z"/><path d="m434 164.6h-7.9c-.9 0-1.6-.2-2.1-.6s-1-.9-1.2-1.6l-2.6-7.6h-16.6l-2.6 7.6c-.2.6-.6 1.1-1.2 1.5s-1.3.7-2.1.7h-7.9l16.9-43.7h10.4zm-16.1-16.7-4-12c-.3-.8-.6-1.7-1-2.7-.3-1-.7-2.1-1-3.3-.3 1.2-.6 2.4-1 3.4-.3 1-.7 1.9-1 2.7l-4 11.9z"/><path d="m447.6 164.6h-10.2v-43.7h10.2z"/><path d="m494.2 120.9v43.7h-5.2c-.8 0-1.4-.1-2-.4-.5-.3-1.1-.7-1.6-1.3l-20.6-26.1c.1.8.1 1.5.2 2.3v2.1 23.4h-8.9v-43.7h5.3c.4 0 .8 0 1.1.1.3 0 .6.1.8.2s.5.3.7.5.5.5.8.8l20.8 26.2c-.1-.8-.2-1.7-.2-2.4s-.1-1.5-.1-2.2v-23.1h8.9z"/><path d="m185.7 519.3v27.7h29v2h-29v28.8h-2.4v-60.5h35.7v2z"/><path d="m229.7 520c0 .4-.1.8-.3 1.1s-.4.7-.7.9c-.3.3-.6.5-.9.6-.4.2-.7.2-1.1.2-.8 0-1.5-.3-2.1-.9s-.9-1.3-.9-2c0-.8.3-1.5.9-2.1s1.3-.9 2.1-.9c.4 0 .7.1 1.1.2s.7.4.9.6c.3.3.5.6.7.9.3.7.3 1 .3 1.4zm-1.8 15.4v42.4h-2.2v-42.4z"/><path d="m241.4 543.6c2-2.7 4.3-4.9 7.1-6.5 2.7-1.6 5.7-2.4 9-2.4 2.4 0 4.4.4 6.2 1.1s3.2 1.8 4.4 3.1c1.2 1.4 2 3 2.6 5s.9 4.2.9 6.7v27.1h-2.3v-27.1c0-2.2-.2-4.2-.7-5.9s-1.2-3.2-2.3-4.5c-1-1.2-2.3-2.2-3.8-2.8s-3.3-1-5.4-1c-3.1 0-6 .8-8.6 2.4s-5 3.9-7 6.7v32.1h-2.3v-42.4h1.1c.5 0 .8.3.9.9z"/><path d="m280.7 541.4c2.1-2.2 4.3-3.8 6.7-5s5-1.7 8-1.7c2.2 0 4.1.4 5.8 1.1 1.6.7 3 1.7 4.1 3s1.9 2.9 2.4 4.8.8 4 .8 6.3v27.9h-.8c-.6 0-.9-.3-1-.9l-.4-6.3c-1.2 1.2-2.4 2.3-3.5 3.3-1.2 1-2.4 1.8-3.7 2.5s-2.7 1.2-4.3 1.6-3.2.6-5 .6c-1.3 0-2.7-.2-4-.6s-2.5-1-3.6-1.9-1.9-2-2.6-3.3c-.6-1.4-1-3-1-4.9s.5-3.6 1.6-5.1 2.7-2.8 5-3.9 5.1-2 8.6-2.6 7.6-1 12.4-1.1v-5c0-4.2-.9-7.5-2.8-9.9-1.8-2.4-4.6-3.5-8.2-3.5-2.2 0-4 .3-5.5.9s-2.8 1.3-3.9 2.1-1.9 1.4-2.5 2.1c-.6.6-1.1.9-1.4.9s-.5-.2-.8-.5zm25.3 15.1c-8.7.3-15.1 1.4-19.2 3.2-4.1 1.9-6.2 4.5-6.2 7.9 0 1.6.3 2.9.8 4.1.5 1.1 1.2 2.1 2.1 2.9s1.9 1.3 3 1.7 2.3.5 3.4.5c1.8 0 3.5-.2 5-.6s2.9-1 4.2-1.7 2.5-1.6 3.6-2.5 2.2-2 3.2-3.1v-12.4z"/><path d="m320.9 543.6c2-2.7 4.3-4.9 7.1-6.5 2.7-1.6 5.7-2.4 9-2.4 2.4 0 4.4.4 6.2 1.1s3.2 1.8 4.4 3.1c1.2 1.4 2 3 2.6 5s.9 4.2.9 6.7v27.1h-2.3v-27.1c0-2.2-.2-4.2-.7-5.9s-1.2-3.2-2.3-4.5c-1-1.2-2.3-2.2-3.8-2.8s-3.3-1-5.4-1c-3.1 0-6 .8-8.6 2.4s-5 3.9-7 6.7v32.1h-2.3v-42.4h1.1c.5 0 .8.3.9.9z"/><path d="m389.3 540-.3.2c-.1.1-.2.1-.3.1-.2 0-.6-.2-1.1-.6s-1.2-.8-2-1.3-2-.9-3.3-1.3-2.9-.6-4.8-.6c-2.6 0-5 .5-7 1.4s-3.8 2.3-5.2 4-2.5 3.9-3.2 6.3c-.7 2.5-1.1 5.2-1.1 8.3 0 3.2.4 6 1.1 8.5.8 2.5 1.8 4.6 3.2 6.3s3.1 3 5 3.9c2 .9 4.1 1.3 6.6 1.3 2.2 0 4-.3 5.5-.8s2.7-1.1 3.7-1.7 1.7-1.2 2.2-1.7.9-.8 1.1-.8.4.1.6.3l.5.6c-.5.7-1.2 1.4-2.1 2.1s-1.9 1.3-3.1 1.8-2.5 1-4 1.3c-1.4.3-3 .5-4.6.5-2.7 0-5.2-.5-7.4-1.5s-4.1-2.4-5.7-4.3-2.8-4.1-3.6-6.8c-.9-2.7-1.3-5.7-1.3-9.2 0-3.3.4-6.3 1.3-8.9s2.1-5 3.7-6.9 3.6-3.4 5.9-4.5 5-1.6 8-1.6c2.6 0 5 .4 7.1 1.3 2.1.8 3.8 2 5.3 3.3z"/><path d="m401.9 520c0 .4-.1.8-.3 1.1s-.4.7-.7.9c-.3.3-.6.5-.9.6-.4.2-.7.2-1.1.2-.8 0-1.5-.3-2.1-.9s-.9-1.3-.9-2c0-.8.3-1.5.9-2.1s1.3-.9 2.1-.9c.4 0 .7.1 1.1.2.4.2.7.4.9.6.3.3.5.6.7.9s.3 1 .3 1.4zm-1.8 15.4v42.4h-2.2v-42.4z"/><path d="m410.2 541.4c2.1-2.2 4.3-3.8 6.7-5s5-1.7 8-1.7c2.2 0 4.1.4 5.8 1.1 1.6.7 3 1.7 4.1 3s1.9 2.9 2.4 4.8.8 4 .8 6.3v27.9h-1c-.6 0-.9-.3-1-.9l-.4-6.3c-1.2 1.2-2.4 2.3-3.5 3.3-1.2 1-2.4 1.8-3.7 2.5s-2.7 1.2-4.3 1.6-3.2.6-5 .6c-1.3 0-2.7-.2-4-.6s-2.5-1-3.6-1.9-1.9-2-2.6-3.3c-.6-1.4-1-3-1-4.9s.5-3.6 1.6-5.1 2.7-2.8 5-3.9 5.1-2 8.6-2.6 7.6-1 12.4-1.1v-5c0-4.2-.9-7.5-2.8-9.9-1.8-2.4-4.6-3.5-8.2-3.5-2.2 0-4 .3-5.5.9s-2.8 1.3-3.9 2.1-1.9 1.4-2.5 2.1c-.6.6-1.1.9-1.4.9s-.5-.2-.8-.5zm25.4 15.1c-8.7.3-15.1 1.4-19.2 3.2-4.1 1.9-6.2 4.5-6.2 7.9 0 1.6.3 2.9.8 4.1.5 1.1 1.2 2.1 2.1 2.9s1.9 1.3 3 1.7 2.3.5 3.4.5c1.8 0 3.5-.2 5-.6s2.9-1 4.2-1.7 2.5-1.6 3.6-2.5 2.2-2 3.2-3.1v-12.4z"/><path d="m448.7 515.6h2.2v62.2h-2.2z"/></g><path d="m386.1 511.3h20.3v14.7h-20.3z" fill="#222629"/><path d="m222.6 515.6h11.5v8.6h-11.5z" fill="#222629"/><path d="m228.4 528.4c0-.9-.7-1.6-1.6-1.6s-1.6.7-1.6 1.6.7 1.6 1.6 1.6 1.6-.7 1.6-1.6z" fill="#fff"/><path d="m400.6 528.4c0-.9-.7-1.6-1.6-1.6s-1.6.7-1.6 1.6.7 1.6 1.6 1.6 1.6-.7 1.6-1.6z" fill="#fff"/><path d="m255.4 471.2 38.9 20.3 8.2 8.7 16.2 2.4 16.2-2.4 8.2-8.7 38.9-20.3 55.1-139.4 48.5 21.1 31.1-18.8-28.4-15.4-47.5 3.5 12.4-45.9-15.8-52.5-118.7-21.8-118.7 21.8-15.8 52.5 12.4 46-47.5-3.6-28.4 15.4 31.1 18.8 48.6-21.1z" fill="#6d6b6c"/><path d="m440.8 322.3 12.3-46 70.4 25.6z" fill="#89c140"/><path d="m437.4 223.8 15.7 52.5 55.5-53.3z" fill="#7db13a"/><path d="m523.5 301.9 30.7-50.5-101.1 24.9z" fill="#7db13a"/><path d="m529.5 202.5-76.4 73.8 101.1-24.9z" fill="#89c140"/><path d="m529.5 202.5 32.1-110.7-7.4 159.6z" fill="#99c756"/><path d="m592.5 183.4-30.9-91.6-7.4 159.6z" fill="#a9cf73"/><path d="m523.5 301.9 52.9-28.6-22.2-21.9z" fill="#89c140"/><path d="m592.5 183.4-16.1 89.9-22.2-21.9z" fill="#99c756"/><path d="m453.1 276.3-134.4 79 42 19.2 50.9-5.3 29.2-46.9z" fill="#4a4a4c"/><path d="m411.6 369.2 7.7 8.1-37.4 93.9 9.5-99.9z" fill="#575757"/><path d="m360.7 374.5-42-19.2 63.2 115.9z" fill="#6d6b6c"/><path d="m437.4 223.8 15.7 52.5-134.4-74.3z" fill="#727071"/><path d="m440.8 322.3-21.5 55-7.7-8.1z" fill="#575757"/><path d="m391.4 371.3-30.7 3.2 21.2 96.7z" fill="#545253"/><path d="m343.1 491.5 1.5-8.9 30.4-24.4 6.9 13z" fill="#575757"/><path d="m355.8 422.2h-37.1v80.4l16.1-2.4 8.3-8.7 31.9-33.3z" fill="#4a4a4c"/><path d="m318.7 355.3v66.9h37.1z" fill="#575757"/><path d="m196.6 322.3-12.4-46-70.3 25.6z" fill="#89c140"/><path d="m200 223.8-15.8 52.5-55.5-53.3z" fill="#7db13a"/><path d="m113.9 301.9-30.7-50.5 101 24.9z" fill="#7db13a"/><path d="m107.9 202.5 76.3 73.8-101-24.9z" fill="#89c140"/><path d="m107.9 202.5-32.2-110.7 7.5 159.6z" fill="#99c756"/><path d="m44.8 183.4 30.9-91.6 7.5 159.6z" fill="#a9cf73"/><path d="m113.9 301.9-52.9-28.6 22.2-21.9z" fill="#89c140"/><path d="m44.8 183.4 16.2 89.9 22.2-21.9z" fill="#99c756"/><path d="m184.2 276.3 134.5 79-42 19.2-50.9-5.3-29.2-46.9z" fill="#4a4a4c"/><path d="m200 223.8-15.8 52.5 134.5-74.3z" fill="#727071"/><path d="m196.6 322.3 21.5 55 7.7-8.1z" fill="#575757"/><path d="m225.8 369.2-7.7 8.1 37.3 93.9-9.5-99.9z" fill="#575757"/><path d="m276.7 374.5 42-19.2-63.3 115.9z" fill="#6d6b6c"/><path d="m245.9 371.3 30.8 3.2-21.3 96.7z" fill="#545253"/><path d="m294.3 491.5-1.5-8.8-30.4-24.5-7 13z" fill="#575757"/><path d="m281.5 422.2h37.2v80.4l-16.2-2.4-8.2-8.7-31.9-33.3z" fill="#4a4a4c"/><path d="m318.7 355.3v66.9h-37.2z" fill="#575757"/><path d="m312.3 349.8h12.7v19h-12.7z" fill="#575757"/><path d="m453.1 276.3-134.4-74.3v153.3z" fill="#575757"/><path d="m184.2 276.3 134.5-74.3v153.3z" fill="#575757"/><path d="m391.4 242.2-51.6 36.4-21.1-76.6z" fill="#626162"/><path d="m245.9 242.2 51.7 36.4 21.1-76.6z" fill="#626162"/><path d="m297.6 278.6 21.1-76.6 21.1 76.6z" fill="#626162"/><path d="m120.7 334.1 31.1 18.8 28.1-12.1z" fill="#6d6b6c"/><path d="m149.1 318.7-28.4 15.4 59.2 6.7z" fill="#575757"/><path d="m200.3 331.8-51.2-13.1 30.8 22.1z" fill="#4a4a4c"/><path d="m196.6 322.3-47.5-3.6 51.2 13.1z" fill="#545253"/><path d="m516.7 334.1-31.1 18.8-28.1-12.1z" fill="#6d6b6c"/><path d="m488.3 318.7 28.4 15.4-59.2 6.7z" fill="#575757"/><path d="m437 331.8 51.3-13.1-30.8 22.1z" fill="#4a4a4c"/><path d="m440.8 322.3 47.5-3.6-51.3 13.1z" fill="#545253"/><path d="m287.9 443.4 9.5 4.5-7 27.5z" fill="#222629"/><path d="m349.1 443.4-9.5 4.5 7 27.5z" fill="#222629"/></svg>