<?xml version="1.0" encoding="utf-8"?>
<!-- Generator: Adobe Illustrator 22.1.0, SVG Export Plug-In . SVG Version: 6.00 Build 0)  -->
<svg version="1.1" xmlns="http://www.w3.org/2000/svg" xmlns:xlink="http://www.w3.org/1999/xlink" x="0px" y="0px"
	 viewBox="0 0 1821.3 474.4" style="enable-background:new 0 0 1821.3 474.4;" xml:space="preserve">
<style type="text/css">
	.st0{fill:#222629;}
	.st1{fill:#D4EEF5;}
	.st2{fill:#ED1C24;}
	.st3{fill:#575757;}
	.st4{fill:#6D6B6C;}
	.st5{fill:#1B75BC;}
	.st6{fill:none;stroke:#1B75BC;stroke-width:3;stroke-miterlimit:10;}
	.st7{fill:#252625;}
	.st8{fill:none;}
	.st9{fill:#4A4A4C;}
	.st10{fill:#545253;}
	.st11{fill:#BCBABB;}
	.st12{fill:#C9C9C9;}
	.st13{fill:#727071;}
	.st14{fill:#DED7D3;}
	.st15{fill:#ACAAAB;}
	.st16{fill:#A5A5A5;}
	.st17{fill:#9B9A98;}
	.st18{fill:#817F80;}
	.st19{fill:#363636;}
	.st20{fill:#2D2E2D;}
	.st21{fill:#F7941D;}
	.st22{fill:#39B54A;}
	.st23{fill:#00AEEF;}
	.st24{fill:#D7DF23;}
	.st25{fill:url(#SVGID_1_);}
	.st26{fill:url(#SVGID_2_);}
	.st27{fill:#976F55;}
	.st28{fill:#AF8F78;}
	.st29{fill:#DBB69B;}
	.st30{fill:#CBA68A;}
	.st31{fill:#DFBDA0;}
	.st32{fill:#C9A389;}
	.st33{fill:#A58068;}
	.st34{fill:#5286C6;}
	.st35{fill:#3F87BC;}
	.st36{fill:#27AAE1;}
	.st37{fill:#4595D1;}
	.st38{fill:#2B3990;}
	.st39{fill:#0E1B1A;}
	.st40{fill:#253430;}
	.st41{fill:#313C39;}
	.st42{fill:#25B0B6;}
	.st43{fill:#44C1C2;}
	.st44{fill:#1F2C2A;}
	.st45{fill:#414D49;}
	.st46{fill:#6FCACC;}
	.st47{fill:#00A3A7;}
	.st48{fill:#333838;}
	.st49{fill:#FFFFFF;}
	.st50{fill:#0065A9;}
	.st51{fill:#0C4B80;}
	.st52{fill:#1681C4;}
	.st53{fill:#005FA2;}
	.st54{fill:#0098D7;}
	.st55{fill:#1F89CA;}
	.st56{fill:#0370B5;}
	.st57{fill:#4EAEE2;}
	.st58{fill:#1B5856;}
	.st59{fill:#305F5D;}
	.st60{fill:#346766;}
	.st61{fill:#30786F;}
	.st62{fill:#004541;}
	.st63{fill:#FFDE17;}
	.st64{fill:#89C140;}
	.st65{fill:#99C756;}
	.st66{fill:#A9CF73;}
	.st67{fill:#7DB13A;}
	.st68{fill:#2B7D40;}
	.st69{fill:none;stroke:#000000;stroke-width:16;stroke-linecap:round;stroke-miterlimit:10;}
	.st70{fill:#6EAD3D;}
	.st71{fill:#53A63F;}
	.st72{fill:#1C1B1C;}
	.st73{fill:#00919A;}
	.st74{fill:#00B9BA;}
	.st75{fill:#007DC5;}
	.st76{fill:#0066B3;}
	.st77{fill:#034EA2;}
	.st78{fill:#0095DA;}
	.st79{fill:#21409A;}
	.st80{fill:#626162;}
	.st81{fill:#484B50;}
	.st82{fill:none;stroke:#88C040;stroke-width:2;stroke-miterlimit:10;}
	.st83{fill:none;stroke:#C7C8CA;stroke-width:1.1541;stroke-miterlimit:10;}
	.st84{fill:#88C040;}
	.st85{fill:none;stroke:#C7C8CA;stroke-width:1.2769;stroke-miterlimit:10;}
	.st86{fill:none;stroke:#0F202A;stroke-miterlimit:10;}
	.st87{fill:none;stroke:#FFFFFF;stroke-width:1.3943;stroke-linecap:round;stroke-miterlimit:10;}
	.st88{fill:#2E496D;}
	.st89{fill:#2C303B;}
	.st90{fill:none;stroke:#FFFFFF;stroke-width:0.4813;stroke-miterlimit:10;}
	.st91{fill:none;stroke:#FFFFFF;stroke-width:1.1422;stroke-miterlimit:10;}
	.st92{fill:none;stroke:#FFFFFF;stroke-miterlimit:10;}
	.st93{fill:#FFFFFF;stroke:#D1D3D4;stroke-width:0.722;stroke-miterlimit:10;}
	.st94{fill:#FFFFFF;stroke:#D1D3D4;stroke-width:1.2737;stroke-miterlimit:10;}
	.st95{opacity:0.49;}
	.st96{fill:#939598;}
	.st97{fill:#282829;}
</style>
<g id="Layer_1">
</g>
<g id="Layer_2">
	<g>
		<polygon class="st64" points="487.3,148.7 503.1,201.2 490.7,247.2 573.4,226.8 626.3,198.2 642.5,108.3 611.6,16.7 579.4,127.4 
			558.6,147.9 		"/>
		<polygon class="st64" points="249.9,148.7 234.1,201.2 246.5,247.2 163.8,226.8 110.9,198.2 94.7,108.3 125.7,16.7 157.8,127.4 
			178.7,147.9 		"/>
		<polygon class="st49" points="793.9,95.7 758.3,95.7 758.3,199 728.9,199 728.9,95.7 693.2,95.7 693.2,72.4 793.9,72.4 		"/>
		<path class="st49" d="M921.4,135.7c0,9.2-1.6,17.7-4.7,25.6c-3.2,7.9-7.6,14.7-13.3,20.6c-5.7,5.8-12.6,10.4-20.7,13.7
			s-17.1,5-26.9,5c-9.9,0-18.8-1.7-26.9-5c-8.1-3.3-15.1-7.9-20.8-13.7c-5.8-5.8-10.2-12.7-13.4-20.6c-3.2-7.9-4.7-16.4-4.7-25.6
			c0-9.2,1.6-17.7,4.7-25.6c3.2-7.9,7.6-14.7,13.4-20.5c5.8-5.8,12.7-10.3,20.8-13.6c8.1-3.3,17.1-5,26.9-5c9.8,0,18.8,1.7,26.9,5
			s15,7.9,20.7,13.7c5.7,5.8,10.2,12.6,13.3,20.5C919.8,118.1,921.4,126.6,921.4,135.7z M891.3,135.7c0-6.3-0.8-11.9-2.4-16.9
			c-1.6-5-4-9.3-7-12.7s-6.8-6.1-11.2-8c-4.4-1.9-9.4-2.8-15-2.8c-5.7,0-10.7,0.9-15.2,2.8c-4.4,1.9-8.2,4.5-11.2,8s-5.4,7.7-7,12.7
			c-1.6,5-2.4,10.6-2.4,16.9c0,6.3,0.8,12,2.4,17c1.6,5,4,9.3,7,12.7s6.8,6.1,11.2,8s9.5,2.7,15.2,2.7c5.6,0,10.6-0.9,15-2.7
			c4.4-1.8,8.1-4.5,11.2-8s5.4-7.7,7-12.7C890.5,147.7,891.3,142,891.3,135.7z"/>
		<path class="st49" d="M1033.6,199H1007c-4.9,0-8.5-1.9-10.6-5.6l-21-36.8c-1-1.6-2.1-2.7-3.3-3.4c-1.2-0.7-3-1.1-5.2-1.1h-7.5V199
			H930V72.4h41.2c9.2,0,17,0.9,23.4,2.8c6.5,1.9,11.7,4.5,15.8,7.9c4.1,3.4,7.1,7.3,8.9,11.9c1.9,4.6,2.8,9.6,2.8,14.9
			c0,4.1-0.6,8-1.7,11.6c-1.1,3.7-2.7,7-4.9,10.1c-2.1,3.1-4.8,5.9-8,8.3c-3.2,2.4-6.8,4.4-10.9,6c1.9,1,3.7,2.2,5.4,3.7
			s3.2,3.2,4.5,5.3L1033.6,199z M971.2,131.9c4,0,7.4-0.5,10.2-1.5c2.8-1,5.1-2.4,6.9-4.2c1.8-1.8,3.1-3.9,3.9-6.3
			c0.8-2.4,1.2-5,1.2-7.8c0-5.6-1.8-9.9-5.4-13c-3.6-3.1-9.2-4.7-16.8-4.7h-11.8v37.5H971.2z"/>
		<path class="st49" d="M1157.6,135.7c0,9.2-1.6,17.7-4.7,25.6c-3.2,7.9-7.6,14.7-13.3,20.6s-12.6,10.4-20.7,13.7
			c-8.1,3.3-17.1,5-26.9,5s-18.8-1.7-26.9-5c-8.1-3.3-15.1-7.9-20.8-13.7s-10.2-12.7-13.4-20.6c-3.2-7.9-4.7-16.4-4.7-25.6
			c0-9.2,1.6-17.7,4.7-25.6c3.2-7.9,7.6-14.7,13.4-20.5c5.8-5.8,12.7-10.3,20.8-13.6c8.1-3.3,17.1-5,26.9-5s18.8,1.7,26.9,5
			c8.1,3.3,15,7.9,20.7,13.7c5.7,5.8,10.2,12.6,13.3,20.5C1156.1,118.1,1157.6,126.6,1157.6,135.7z M1127.6,135.7
			c0-6.3-0.8-11.9-2.4-16.9c-1.6-5-4-9.3-7-12.7s-6.8-6.1-11.2-8c-4.4-1.9-9.4-2.8-15-2.8c-5.7,0-10.7,0.9-15.2,2.8
			c-4.4,1.9-8.2,4.5-11.2,8s-5.4,7.7-7,12.7c-1.6,5-2.4,10.6-2.4,16.9c0,6.3,0.8,12,2.4,17c1.6,5,4,9.3,7,12.7s6.8,6.1,11.2,8
			c4.4,1.8,9.5,2.7,15.2,2.7c5.6,0,10.6-0.9,15-2.7c4.4-1.8,8.1-4.5,11.2-8s5.4-7.7,7-12.7C1126.8,147.7,1127.6,142,1127.6,135.7z"
			/>
		<path class="st49" d="M1251.6,166.3c0.7,0,1.4,0.1,2.1,0.4s1.4,0.7,2,1.3l11.6,12.3c-5.1,6.7-11.5,11.7-19.2,15.1
			c-7.7,3.4-16.8,5.1-27.2,5.1c-9.6,0-18.2-1.6-25.9-4.9c-7.6-3.3-14.1-7.8-19.4-13.6c-5.3-5.8-9.4-12.6-12.2-20.5
			c-2.8-7.9-4.3-16.5-4.3-25.8c0-9.4,1.5-18.1,4.6-26c3.1-7.9,7.4-14.7,13-20.5c5.6-5.7,12.2-10.2,20-13.4
			c7.8-3.2,16.3-4.8,25.6-4.8c4.8,0,9.2,0.4,13.4,1.3s8.1,2,11.8,3.5s7,3.3,10.1,5.3s5.8,4.3,8.2,6.8l-9.9,13.3
			c-0.6,0.8-1.4,1.6-2.3,2.2s-2.1,1-3.7,1c-1,0-2-0.2-3-0.7c-0.9-0.5-1.9-1-3-1.7s-2.2-1.4-3.4-2.2s-2.7-1.5-4.4-2.2
			c-1.7-0.7-3.7-1.2-6-1.7c-2.3-0.5-5-0.7-8-0.7c-4.9,0-9.3,0.9-13.3,2.7c-4,1.8-7.5,4.4-10.4,7.9c-2.9,3.4-5.2,7.7-6.8,12.7
			c-1.6,5-2.4,10.7-2.4,17.2c0,6.5,0.9,12.3,2.7,17.3c1.8,5,4.2,9.3,7.2,12.7c3,3.4,6.6,6.1,10.6,7.9c4.1,1.8,8.4,2.7,13,2.7
			c2.7,0,5.1-0.1,7.3-0.4c2.2-0.3,4.3-0.7,6.2-1.3s3.7-1.4,5.4-2.4c1.7-1,3.4-2.3,5.1-3.9c0.7-0.6,1.4-1.1,2.3-1.4
			C1249.9,166.5,1250.7,166.3,1251.6,166.3z"/>
		<polygon class="st49" points="1382.1,72.4 1382.1,199 1352.5,199 1352.5,145.5 1301,145.5 1301,199 1271.5,199 1271.5,72.4 
			1301,72.4 1301,125.3 1352.5,125.3 1352.5,72.4 		"/>
		<path class="st49" d="M1511.5,199h-22.8c-2.6,0-4.6-0.6-6.2-1.8c-1.6-1.2-2.8-2.7-3.6-4.6l-7.5-22.1h-48.2l-7.5,22.1
			c-0.6,1.6-1.8,3.1-3.4,4.4s-3.7,2-6.1,2h-22.9l49-126.6h30.1L1511.5,199z M1464.8,150.6l-11.7-34.7c-0.9-2.2-1.8-4.8-2.8-7.8
			c-1-3-2-6.2-3-9.7c-0.9,3.5-1.8,6.8-2.8,9.8c-1,3-1.9,5.6-2.8,7.8l-11.6,34.5H1464.8z"/>
		<rect x="1512.8" y="72.4" class="st49" width="29.6" height="126.6"/>
		<path class="st49" d="M1668.7,72.4V199h-15.3c-2.3,0-4.2-0.4-5.7-1.1c-1.5-0.7-3.1-2-4.6-3.8l-59.7-75.5c0.2,2.3,0.4,4.4,0.5,6.6
			c0.1,2.1,0.1,4.1,0.1,6V199h-25.9V72.4h15.5c1.3,0,2.3,0.1,3.2,0.2c0.9,0.1,1.7,0.3,2.3,0.7s1.4,0.8,2,1.3
			c0.6,0.6,1.4,1.4,2.2,2.3l60.2,76.1c-0.3-2.4-0.5-4.8-0.6-7.1c-0.1-2.3-0.2-4.4-0.2-6.5v-67H1668.7z"/>
		<polygon class="st49" points="921.7,249.9 921.7,305.9 980.4,305.9 980.4,310 921.7,310 921.7,368 916.9,368 916.9,245.8 
			989.1,245.8 989.1,249.9 		"/>
		<rect x="1002.5" y="282.3" class="st49" width="4.5" height="85.7"/>
		<path class="st49" d="M1034.4,298.9c4-5.5,8.8-9.9,14.3-13.1c5.5-3.2,11.6-4.9,18.1-4.9c4.8,0,8.9,0.7,12.5,2.2s6.5,3.6,8.9,6.3
			c2.3,2.8,4.1,6.1,5.3,10.1c1.2,4,1.8,8.5,1.8,13.6V368h-4.6v-54.8c0-4.5-0.5-8.5-1.5-12c-1-3.5-2.5-6.5-4.6-9
			c-2.1-2.5-4.6-4.3-7.7-5.6c-3.1-1.3-6.7-2-10.9-2c-6.3,0-12,1.6-17.3,4.9c-5.3,3.3-10,7.8-14.1,13.6V368h-4.6v-85.7h2.2
			c1.1,0,1.7,0.6,1.7,1.7L1034.4,298.9z"/>
		<path class="st49" d="M1113.7,294.5c4.3-4.4,8.8-7.8,13.5-10.1c4.7-2.3,10.1-3.5,16.1-3.5c4.5,0,8.3,0.7,11.6,2.1
			c3.3,1.4,6,3.5,8.2,6.1s3.8,5.9,4.8,9.7c1,3.8,1.6,8.1,1.6,12.8V368h-1.6c-1.2,0-1.8-0.6-2-1.8l-0.9-12.7
			c-2.4,2.4-4.8,4.6-7.1,6.6c-2.4,2-4.9,3.6-7.6,5c-2.7,1.4-5.5,2.4-8.6,3.2c-3.1,0.8-6.5,1.1-10.2,1.1c-2.7,0-5.4-0.4-8.1-1.2
			s-5.1-2.1-7.2-3.8c-2.1-1.7-3.9-4-5.2-6.7c-1.3-2.8-2-6.1-2-10c0-3.8,1.1-7.2,3.3-10.3c2.2-3.1,5.5-5.7,10.1-8
			c4.6-2.2,10.4-4,17.4-5.3c7-1.3,15.4-2.1,25-2.3v-10.2c0-8.6-1.9-15.2-5.6-20c-3.7-4.8-9.2-7.1-16.5-7.1c-4.3,0-8.1,0.6-11.2,1.9
			c-3.1,1.2-5.7,2.6-7.8,4.2c-2.1,1.5-3.8,2.9-5,4.2c-1.2,1.2-2.2,1.9-2.8,1.9c-0.6,0-1.1-0.3-1.6-1L1113.7,294.5z M1165,325.1
			c-17.5,0.6-30.4,2.8-38.8,6.5c-8.4,3.8-12.6,9.1-12.6,15.9c0,3.2,0.5,5.9,1.6,8.3c1.1,2.3,2.5,4.2,4.3,5.8c1.8,1.5,3.8,2.7,6,3.4
			c2.3,0.7,4.6,1.1,7,1.1c3.7,0,7.1-0.4,10.2-1.3c3.1-0.8,5.9-2,8.5-3.4c2.6-1.4,5-3.2,7.3-5.1c2.3-2,4.4-4.1,6.5-6.3V325.1z"/>
		<path class="st49" d="M1195,298.9c4-5.5,8.8-9.9,14.3-13.1c5.5-3.2,11.6-4.9,18.1-4.9c4.8,0,8.9,0.7,12.5,2.2s6.5,3.6,8.9,6.3
			c2.3,2.8,4.1,6.1,5.3,10.1c1.2,4,1.8,8.5,1.8,13.6V368h-4.6v-54.8c0-4.5-0.5-8.5-1.5-12c-1-3.5-2.5-6.5-4.6-9
			c-2.1-2.5-4.6-4.3-7.7-5.6c-3.1-1.3-6.7-2-10.9-2c-6.3,0-12,1.6-17.3,4.9c-5.3,3.3-10,7.8-14.1,13.6V368h-4.6v-85.7h2.2
			c1.1,0,1.7,0.6,1.7,1.7L1195,298.9z"/>
		<path class="st49" d="M1333.3,291.7c-0.2,0.2-0.3,0.3-0.5,0.5c-0.2,0.1-0.4,0.2-0.7,0.2c-0.5,0-1.2-0.4-2.2-1.2
			c-1-0.8-2.3-1.7-4.1-2.7s-3.9-1.9-6.6-2.7c-2.7-0.8-5.9-1.2-9.6-1.2c-5.3,0-10.1,0.9-14.2,2.8c-4.1,1.9-7.6,4.6-10.5,8.1
			c-2.9,3.5-5.1,7.8-6.6,12.8c-1.5,5-2.3,10.6-2.3,16.9c0,6.4,0.8,12.2,2.3,17.2c1.5,5,3.7,9.2,6.5,12.6c2.8,3.4,6.2,6,10.2,7.8
			c4,1.8,8.4,2.7,13.3,2.7c4.4,0,8.1-0.5,11.1-1.5c3-1,5.5-2.1,7.4-3.4c2-1.2,3.5-2.4,4.5-3.4c1-1,1.8-1.5,2.3-1.5
			c0.5,0,0.8,0.2,1.1,0.5l1,1.3c-1,1.4-2.5,2.9-4.3,4.3s-3.9,2.6-6.3,3.7c-2.4,1.1-5.1,1.9-8,2.6c-2.9,0.7-6,1-9.3,1
			c-5.5,0-10.5-1-14.9-3c-4.5-2-8.3-4.8-11.4-8.6c-3.2-3.8-5.6-8.4-7.3-13.8c-1.7-5.4-2.6-11.6-2.6-18.5c0-6.6,0.9-12.6,2.6-18.1
			c1.7-5.4,4.2-10.1,7.4-14c3.2-3.9,7.2-6.9,11.9-9c4.7-2.1,10.1-3.2,16.1-3.2c5.3,0,10.1,0.9,14.3,2.6c4.2,1.7,7.8,4,10.8,6.7
			L1333.3,291.7z"/>
		<rect x="1350.5" y="282.3" class="st49" width="4.5" height="85.7"/>
		<path class="st49" d="M1375.5,294.5c4.3-4.4,8.8-7.8,13.5-10.1c4.7-2.3,10.1-3.5,16.1-3.5c4.5,0,8.3,0.7,11.6,2.1
			c3.3,1.4,6,3.5,8.2,6.1s3.8,5.9,4.8,9.7c1,3.8,1.6,8.1,1.6,12.8V368h-1.6c-1.2,0-1.8-0.6-2-1.8l-0.9-12.7
			c-2.4,2.4-4.8,4.6-7.1,6.6c-2.4,2-4.9,3.6-7.6,5c-2.7,1.4-5.5,2.4-8.6,3.2s-6.5,1.1-10.2,1.1c-2.7,0-5.4-0.4-8.1-1.2
			c-2.7-0.8-5.1-2.1-7.2-3.8c-2.1-1.7-3.9-4-5.2-6.7c-1.3-2.8-2-6.1-2-10c0-3.8,1.1-7.2,3.3-10.3c2.2-3.1,5.5-5.7,10.1-8
			c4.6-2.2,10.4-4,17.4-5.3c7-1.3,15.4-2.1,25-2.3v-10.2c0-8.6-1.9-15.2-5.6-20c-3.7-4.8-9.2-7.1-16.5-7.1c-4.3,0-8.1,0.6-11.2,1.9
			c-3.1,1.2-5.7,2.6-7.8,4.2c-2.1,1.5-3.8,2.9-5,4.2c-1.2,1.2-2.2,1.9-2.8,1.9c-0.6,0-1.1-0.3-1.6-1L1375.5,294.5z M1426.8,325.1
			c-17.5,0.6-30.4,2.8-38.8,6.5c-8.4,3.8-12.6,9.1-12.6,15.9c0,3.2,0.5,5.9,1.6,8.3c1.1,2.3,2.5,4.2,4.3,5.8c1.8,1.5,3.8,2.7,6,3.4
			c2.3,0.7,4.6,1.1,7,1.1c3.7,0,7.1-0.4,10.2-1.3c3.1-0.8,5.9-2,8.5-3.4c2.6-1.4,5-3.2,7.3-5.1s4.4-4.1,6.5-6.3V325.1z"/>
		<rect x="1453.3" y="242.4" class="st49" width="4.5" height="125.7"/>
		<circle class="st49" cx="1004.8" cy="268.2" r="3.2"/>
		<circle class="st49" cx="1352.8" cy="268.2" r="3.2"/>
		<polygon class="st4" points="305.3,396.2 344.2,416.5 352.4,425.2 368.6,427.6 384.8,425.2 393,416.5 431.9,396.2 487,256.8 
			535.5,277.8 566.6,259.1 538.2,243.7 490.7,247.2 503.1,201.3 487.3,148.7 368.6,126.9 249.9,148.7 234.1,201.3 246.5,247.2 
			199,243.7 170.6,259.1 201.7,277.9 250.3,256.8 		"/>
		<polygon class="st64" points="490.7,247.2 503,201.3 573.4,226.9 		"/>
		<polygon class="st67" points="487.3,148.7 503,201.3 558.5,148 		"/>
		<polygon class="st67" points="573.4,226.9 604.1,176.4 503,201.3 		"/>
		<polygon class="st64" points="579.4,127.5 503,201.3 604.1,176.4 		"/>
		<polygon class="st65" points="579.4,127.5 611.5,16.8 604.1,176.4 		"/>
		<polygon class="st66" points="642.4,108.4 611.5,16.8 604.1,176.4 		"/>
		<polygon class="st64" points="573.4,226.9 626.3,198.3 604.1,176.4 		"/>
		<polygon class="st65" points="642.4,108.4 626.3,198.3 604.1,176.4 		"/>
		<polygon class="st9" points="503,201.3 368.6,280.2 410.6,299.5 461.5,294.1 490.7,247.2 		"/>
		<polygon class="st3" points="461.5,294.1 469.2,302.2 431.8,396.2 441.3,296.2 		"/>
		<polygon class="st4" points="410.6,299.5 368.6,280.2 431.8,396.2 		"/>
		<polygon class="st13" points="487.3,148.7 503,201.3 368.6,127 		"/>
		<polygon class="st3" points="490.7,247.2 469.2,302.2 461.5,294.1 		"/>
		<polygon class="st10" points="441.3,296.2 410.6,299.5 431.8,396.2 		"/>
		<polygon class="st3" points="393,416.5 394.5,407.6 424.9,383.2 431.8,396.2 		"/>
		<polygon class="st9" points="405.7,347.2 368.6,347.2 368.6,427.6 384.7,425.2 393,416.5 424.9,383.2 		"/>
		<polygon class="st3" points="368.6,280.2 368.6,347.2 405.7,347.2 		"/>
		<polygon class="st64" points="246.5,247.3 234.1,201.3 163.8,226.9 		"/>
		<polygon class="st67" points="249.9,148.8 234.1,201.3 178.6,148 		"/>
		<polygon class="st67" points="163.8,226.9 133.1,176.4 234.1,201.3 		"/>
		<polygon class="st64" points="157.8,127.5 234.1,201.3 133.1,176.4 		"/>
		<polygon class="st65" points="157.8,127.5 125.6,16.8 133.1,176.4 		"/>
		<polygon class="st66" points="94.7,108.4 125.6,16.8 133.1,176.4 		"/>
		<polygon class="st64" points="163.8,226.9 110.9,198.3 133.1,176.4 		"/>
		<polygon class="st65" points="94.7,108.4 110.9,198.3 133.1,176.4 		"/>
		<polygon class="st9" points="234.1,201.3 368.6,280.2 326.5,299.5 275.7,294.1 246.5,247.3 		"/>
		<polygon class="st13" points="249.9,148.8 234.1,201.3 368.6,127 		"/>
		<polygon class="st3" points="246.5,247.3 268,302.2 275.7,294.1 		"/>
		<polygon class="st3" points="275.7,294.1 268,302.2 305.3,396.2 295.8,296.2 		"/>
		<polygon class="st4" points="326.5,299.5 368.6,280.2 305.3,396.2 		"/>
		<polygon class="st10" points="295.8,296.2 326.5,299.5 305.3,396.2 		"/>
		<polygon class="st3" points="344.2,416.5 342.7,407.6 312.3,383.2 305.3,396.2 		"/>
		<polygon class="st9" points="331.4,347.2 368.6,347.2 368.6,427.6 352.4,425.2 344.2,416.5 312.3,383.2 		"/>
		<polygon class="st3" points="368.6,280.2 368.6,347.2 331.4,347.2 		"/>
		<rect x="362.2" y="274.7" class="st3" width="12.7" height="19"/>
		<polygon class="st3" points="503,201.3 368.6,127 368.6,280.2 		"/>
		<polygon class="st3" points="234.1,201.3 368.6,127 368.6,280.2 		"/>
		<polygon class="st80" points="441.3,167.2 389.7,203.6 368.6,127 		"/>
		<polygon class="st80" points="295.8,167.2 347.5,203.6 368.6,127 		"/>
		<polygon class="st80" points="347.5,203.6 368.6,127 389.7,203.6 		"/>
		<polygon class="st4" points="170.6,259.1 201.6,277.9 229.8,265.8 		"/>
		<polygon class="st3" points="199,243.7 170.6,259.1 229.8,265.8 		"/>
		<polygon class="st9" points="250.2,256.8 199,243.7 229.8,265.8 		"/>
		<polygon class="st10" points="246.5,247.3 199,243.7 250.2,256.8 		"/>
		<polygon class="st4" points="566.6,259.1 535.5,277.9 507.4,265.7 		"/>
		<polygon class="st3" points="538.2,243.7 566.6,259.1 507.4,265.7 		"/>
		<polygon class="st9" points="486.9,256.8 538.2,243.7 507.4,265.7 		"/>
		<polygon class="st10" points="490.7,247.2 538.2,243.7 486.9,256.8 		"/>
		<polygon class="st0" points="337.8,368.4 347.3,372.9 340.3,400.4 		"/>
		<polygon class="st0" points="399,368.4 389.5,372.9 396.5,400.4 		"/>
	</g>
</g>
</svg>
