<?xml version="1.0" encoding="utf-8"?>
<!-- Generator: Adobe Illustrator 22.1.0, SVG Export Plug-In . SVG Version: 6.00 Build 0)  -->
<svg version="1.1" xmlns="http://www.w3.org/2000/svg" xmlns:xlink="http://www.w3.org/1999/xlink" x="0px" y="0px"
	 viewBox="0 0 631 631" style="enable-background:new 0 0 631 631;" xml:space="preserve">
<style type="text/css">
	.st0{fill:#222629;}
	.st1{fill:#D4EEF5;}
	.st2{fill:#ED1C24;}
	.st3{fill:#575757;}
	.st4{fill:#6D6B6C;}
	.st5{fill:#1B75BC;}
	.st6{fill:none;stroke:#1B75BC;stroke-width:3;stroke-miterlimit:10;}
	.st7{fill:#252625;}
	.st8{fill:none;}
	.st9{fill:#4A4A4C;}
	.st10{fill:#545253;}
	.st11{fill:#BCBABB;}
	.st12{fill:#C9C9C9;}
	.st13{fill:#727071;}
	.st14{fill:#DED7D3;}
	.st15{fill:#ACAAAB;}
	.st16{fill:#A5A5A5;}
	.st17{fill:#9B9A98;}
	.st18{fill:#817F80;}
	.st19{fill:#363636;}
	.st20{fill:#2D2E2D;}
	.st21{fill:#F7941D;}
	.st22{fill:#39B54A;}
	.st23{fill:#00AEEF;}
	.st24{fill:#D7DF23;}
	.st25{fill:url(#SVGID_1_);}
	.st26{fill:url(#SVGID_2_);}
	.st27{fill:#976F55;}
	.st28{fill:#AF8F78;}
	.st29{fill:#DBB69B;}
	.st30{fill:#CBA68A;}
	.st31{fill:#DFBDA0;}
	.st32{fill:#C9A389;}
	.st33{fill:#A58068;}
	.st34{fill:#5286C6;}
	.st35{fill:#3F87BC;}
	.st36{fill:#27AAE1;}
	.st37{fill:#4595D1;}
	.st38{fill:#2B3990;}
	.st39{fill:#0E1B1A;}
	.st40{fill:#253430;}
	.st41{fill:#313C39;}
	.st42{fill:#25B0B6;}
	.st43{fill:#44C1C2;}
	.st44{fill:#1F2C2A;}
	.st45{fill:#414D49;}
	.st46{fill:#6FCACC;}
	.st47{fill:#00A3A7;}
	.st48{fill:#333838;}
	.st49{fill:#FFFFFF;}
	.st50{fill:#0065A9;}
	.st51{fill:#0C4B80;}
	.st52{fill:#1681C4;}
	.st53{fill:#005FA2;}
	.st54{fill:#0098D7;}
	.st55{fill:#1F89CA;}
	.st56{fill:#0370B5;}
	.st57{fill:#4EAEE2;}
	.st58{fill:#1B5856;}
	.st59{fill:#305F5D;}
	.st60{fill:#346766;}
	.st61{fill:#30786F;}
	.st62{fill:#004541;}
	.st63{fill:#FFDE17;}
	.st64{fill:#89C140;}
	.st65{fill:#99C756;}
	.st66{fill:#A9CF73;}
	.st67{fill:#7DB13A;}
	.st68{fill:#2B7D40;}
	.st69{fill:none;stroke:#000000;stroke-width:16;stroke-linecap:round;stroke-miterlimit:10;}
	.st70{fill:#6EAD3D;}
	.st71{fill:#53A63F;}
	.st72{fill:#1C1B1C;}
	.st73{fill:#00919A;}
	.st74{fill:#00B9BA;}
	.st75{fill:#007DC5;}
	.st76{fill:#0066B3;}
	.st77{fill:#034EA2;}
	.st78{fill:#0095DA;}
	.st79{fill:#21409A;}
	.st80{fill:#626162;}
	.st81{fill:#484B50;}
	.st82{fill:none;stroke:#88C040;stroke-width:2;stroke-miterlimit:10;}
	.st83{fill:none;stroke:#C7C8CA;stroke-width:1.1541;stroke-miterlimit:10;}
	.st84{fill:#88C040;}
	.st85{fill:none;stroke:#C7C8CA;stroke-width:1.2769;stroke-miterlimit:10;}
	.st86{fill:none;stroke:#0F202A;stroke-miterlimit:10;}
	.st87{fill:none;stroke:#FFFFFF;stroke-width:1.3943;stroke-linecap:round;stroke-miterlimit:10;}
	.st88{fill:#2E496D;}
	.st89{fill:#2C303B;}
	.st90{fill:none;stroke:#FFFFFF;stroke-width:0.4813;stroke-miterlimit:10;}
	.st91{fill:none;stroke:#FFFFFF;stroke-width:1.1422;stroke-miterlimit:10;}
	.st92{fill:none;stroke:#FFFFFF;stroke-miterlimit:10;}
	.st93{fill:#FFFFFF;stroke:#D1D3D4;stroke-width:0.722;stroke-miterlimit:10;}
	.st94{fill:#FFFFFF;stroke:#D1D3D4;stroke-width:1.2737;stroke-miterlimit:10;}
	.st95{opacity:0.49;}
	.st96{fill:#939598;}
	.st97{fill:#282829;}
</style>
<g id="Layer_1">
</g>
<g id="Layer_2">
	<g>
		<polygon class="st64" points="434.2,238 450,290.6 437.6,336.5 520.3,316.2 573.2,287.6 589.4,197.7 558.5,106.1 526.3,216.8 
			505.5,237.3 		"/>
		<polygon class="st64" points="196.8,238 181.1,290.6 193.4,336.5 110.7,316.2 57.8,287.6 41.7,197.7 72.6,106.1 104.7,216.8 
			125.6,237.3 		"/>
		<g>
			<path class="st49" d="M168.2,129h-12.3v35.7h-10.1V129h-12.3v-8h34.7V129z"/>
			<path class="st49" d="M215.2,142.8c0,3.2-0.5,6.1-1.6,8.8c-1.1,2.7-2.6,5.1-4.6,7.1c-2,2-4.4,3.6-7.2,4.7
				c-2.8,1.1-5.9,1.7-9.3,1.7c-3.4,0-6.5-0.6-9.3-1.7c-2.8-1.1-5.2-2.7-7.2-4.7s-3.5-4.4-4.6-7.1s-1.6-5.7-1.6-8.8s0.5-6.1,1.6-8.8
				c1.1-2.7,2.6-5.1,4.6-7.1s4.4-3.6,7.2-4.7c2.8-1.1,5.9-1.7,9.3-1.7c3.4,0,6.5,0.6,9.3,1.7s5.2,2.7,7.2,4.7c2,2,3.5,4.4,4.6,7.1
				C214.7,136.7,215.2,139.6,215.2,142.8z M204.9,142.8c0-2.2-0.3-4.1-0.8-5.8c-0.6-1.7-1.4-3.2-2.4-4.4c-1-1.2-2.3-2.1-3.9-2.8
				c-1.5-0.6-3.3-1-5.2-1c-2,0-3.7,0.3-5.2,1c-1.5,0.6-2.8,1.6-3.9,2.8c-1,1.2-1.9,2.7-2.4,4.4c-0.6,1.7-0.8,3.7-0.8,5.8
				c0,2.2,0.3,4.1,0.8,5.9c0.6,1.7,1.4,3.2,2.4,4.4c1,1.2,2.3,2.1,3.9,2.7s3.3,0.9,5.2,0.9c1.9,0,3.7-0.3,5.2-0.9
				c1.5-0.6,2.8-1.5,3.9-2.7c1-1.2,1.9-2.7,2.4-4.4C204.6,146.9,204.9,145,204.9,142.8z"/>
			<path class="st49" d="M257,164.6h-9.2c-1.7,0-2.9-0.6-3.7-1.9l-7.3-12.7c-0.3-0.5-0.7-0.9-1.1-1.2s-1-0.4-1.8-0.4h-2.6v16.2
				h-10.1v-43.7h14.2c3.2,0,5.9,0.3,8.1,1c2.2,0.7,4,1.6,5.5,2.7s2.4,2.5,3.1,4.1c0.6,1.6,1,3.3,1,5.2c0,1.4-0.2,2.8-0.6,4
				c-0.4,1.3-0.9,2.4-1.7,3.5c-0.7,1.1-1.7,2-2.7,2.9c-1.1,0.8-2.3,1.5-3.8,2.1c0.7,0.3,1.3,0.8,1.9,1.3c0.6,0.5,1.1,1.1,1.6,1.8
				L257,164.6z M235.4,141.5c1.4,0,2.6-0.2,3.5-0.5c1-0.4,1.8-0.8,2.4-1.5c0.6-0.6,1.1-1.3,1.3-2.2c0.3-0.8,0.4-1.7,0.4-2.7
				c0-1.9-0.6-3.4-1.9-4.5s-3.2-1.6-5.8-1.6h-4.1v13H235.4z"/>
			<path class="st49" d="M302.8,142.8c0,3.2-0.5,6.1-1.6,8.8c-1.1,2.7-2.6,5.1-4.6,7.1c-2,2-4.4,3.6-7.2,4.7
				c-2.8,1.1-5.9,1.7-9.3,1.7c-3.4,0-6.5-0.6-9.3-1.7c-2.8-1.1-5.2-2.7-7.2-4.7s-3.5-4.4-4.6-7.1s-1.6-5.7-1.6-8.8s0.5-6.1,1.6-8.8
				c1.1-2.7,2.6-5.1,4.6-7.1s4.4-3.6,7.2-4.7c2.8-1.1,5.9-1.7,9.3-1.7c3.4,0,6.5,0.6,9.3,1.7s5.2,2.7,7.2,4.7c2,2,3.5,4.4,4.6,7.1
				C302.3,136.7,302.8,139.6,302.8,142.8z M292.5,142.8c0-2.2-0.3-4.1-0.8-5.8c-0.6-1.7-1.4-3.2-2.4-4.4c-1-1.2-2.3-2.1-3.9-2.8
				c-1.5-0.6-3.3-1-5.2-1c-2,0-3.7,0.3-5.2,1c-1.5,0.6-2.8,1.6-3.9,2.8c-1,1.2-1.9,2.7-2.4,4.4c-0.6,1.7-0.8,3.7-0.8,5.8
				c0,2.2,0.3,4.1,0.8,5.9c0.6,1.7,1.4,3.2,2.4,4.4c1,1.2,2.3,2.1,3.9,2.7s3.3,0.9,5.2,0.9c1.9,0,3.7-0.3,5.2-0.9
				c1.5-0.6,2.8-1.5,3.9-2.7c1-1.2,1.9-2.7,2.4-4.4C292.2,146.9,292.5,145,292.5,142.8z"/>
			<path class="st49" d="M338.3,153.3c0.2,0,0.5,0,0.7,0.1s0.5,0.2,0.7,0.5l4,4.2c-1.8,2.3-4,4-6.6,5.2s-5.8,1.8-9.4,1.8
				c-3.3,0-6.3-0.6-8.9-1.7s-4.9-2.7-6.7-4.7s-3.2-4.4-4.2-7.1c-1-2.7-1.5-5.7-1.5-8.9c0-3.3,0.5-6.3,1.6-9c1.1-2.7,2.6-5.1,4.5-7.1
				c1.9-2,4.2-3.5,6.9-4.6c2.7-1.1,5.6-1.7,8.9-1.7c1.6,0,3.2,0.1,4.6,0.4s2.8,0.7,4.1,1.2c1.3,0.5,2.4,1.1,3.5,1.8
				c1.1,0.7,2,1.5,2.8,2.3l-3.4,4.6c-0.2,0.3-0.5,0.5-0.8,0.8c-0.3,0.2-0.7,0.3-1.3,0.3c-0.4,0-0.7-0.1-1-0.2
				c-0.3-0.2-0.7-0.4-1-0.6c-0.4-0.2-0.8-0.5-1.2-0.8c-0.4-0.3-0.9-0.5-1.5-0.8c-0.6-0.2-1.3-0.4-2.1-0.6s-1.7-0.2-2.8-0.2
				c-1.7,0-3.2,0.3-4.6,0.9c-1.4,0.6-2.6,1.5-3.6,2.7c-1,1.2-1.8,2.7-2.3,4.4c-0.5,1.7-0.8,3.7-0.8,5.9c0,2.2,0.3,4.2,0.9,6
				c0.6,1.7,1.4,3.2,2.5,4.4c1,1.2,2.3,2.1,3.7,2.7s2.9,0.9,4.5,0.9c0.9,0,1.8,0,2.5-0.1c0.8-0.1,1.5-0.2,2.1-0.5s1.3-0.5,1.9-0.8
				c0.6-0.3,1.2-0.8,1.8-1.3c0.2-0.2,0.5-0.4,0.8-0.5C337.7,153.4,338,153.3,338.3,153.3z"/>
			<path class="st49" d="M386.3,120.9v43.7h-10.2v-18.5h-17.8v18.5h-10.2v-43.7h10.2v18.3h17.8v-18.3H386.3z"/>
			<path class="st49" d="M434,164.6h-7.9c-0.9,0-1.6-0.2-2.1-0.6c-0.5-0.4-1-0.9-1.2-1.6l-2.6-7.6h-16.6l-2.6,7.6
				c-0.2,0.6-0.6,1.1-1.2,1.5s-1.3,0.7-2.1,0.7h-7.9l16.9-43.7H417L434,164.6z M417.9,147.9l-4-12c-0.3-0.8-0.6-1.7-1-2.7
				c-0.3-1-0.7-2.1-1-3.3c-0.3,1.2-0.6,2.4-1,3.4c-0.3,1-0.7,1.9-1,2.7l-4,11.9H417.9z"/>
			<path class="st49" d="M447.6,164.6h-10.2v-43.7h10.2V164.6z"/>
			<path class="st49" d="M494.2,120.9v43.7H489c-0.8,0-1.4-0.1-2-0.4c-0.5-0.3-1.1-0.7-1.6-1.3l-20.6-26.1c0.1,0.8,0.1,1.5,0.2,2.3
				c0,0.7,0,1.4,0,2.1v23.4h-8.9v-43.7h5.3c0.4,0,0.8,0,1.1,0.1c0.3,0,0.6,0.1,0.8,0.2s0.5,0.3,0.7,0.5s0.5,0.5,0.8,0.8l20.8,26.3
				c-0.1-0.8-0.2-1.7-0.2-2.4s-0.1-1.5-0.1-2.2v-23.1H494.2z"/>
		</g>
		<polygon class="st49" points="185.7,519.3 185.7,547 214.7,547 214.7,549 185.7,549 185.7,577.8 183.3,577.8 183.3,517.3 
			219,517.3 219,519.3 		"/>
		<rect x="225.7" y="535.4" class="st49" width="2.2" height="42.4"/>
		<path class="st49" d="M241.4,543.6c2-2.7,4.3-4.9,7.1-6.5s5.7-2.4,9-2.4c2.4,0,4.4,0.4,6.2,1.1c1.8,0.7,3.2,1.8,4.4,3.1
			c1.2,1.4,2,3,2.6,5c0.6,2,0.9,4.2,0.9,6.7v27.1h-2.3v-27.1c0-2.2-0.2-4.2-0.7-5.9c-0.5-1.7-1.2-3.2-2.3-4.5
			c-1-1.2-2.3-2.2-3.8-2.8c-1.5-0.6-3.3-1-5.4-1c-3.1,0-6,0.8-8.6,2.4c-2.6,1.6-5,3.9-7,6.7v32.1h-2.3v-42.4h1.1
			c0.5,0,0.8,0.3,0.9,0.9L241.4,543.6z"/>
		<path class="st49" d="M280.7,541.4c2.1-2.2,4.3-3.8,6.7-5c2.3-1.1,5-1.7,8-1.7c2.2,0,4.1,0.4,5.8,1.1c1.6,0.7,3,1.7,4.1,3
			c1.1,1.3,1.9,2.9,2.4,4.8c0.5,1.9,0.8,4,0.8,6.3v27.9h-0.8c-0.6,0-0.9-0.3-1-0.9l-0.4-6.3c-1.2,1.2-2.4,2.3-3.5,3.3
			c-1.2,1-2.4,1.8-3.7,2.5c-1.3,0.7-2.7,1.2-4.3,1.6c-1.5,0.4-3.2,0.6-5,0.6c-1.3,0-2.7-0.2-4-0.6s-2.5-1-3.6-1.9
			c-1.1-0.9-1.9-2-2.6-3.3c-0.6-1.4-1-3-1-4.9c0-1.9,0.5-3.6,1.6-5.1c1.1-1.5,2.7-2.8,5-3.9c2.3-1.1,5.1-2,8.6-2.6
			c3.5-0.6,7.6-1,12.4-1.1v-5c0-4.2-0.9-7.5-2.8-9.9c-1.8-2.4-4.6-3.5-8.2-3.5c-2.2,0-4,0.3-5.5,0.9c-1.5,0.6-2.8,1.3-3.9,2.1
			c-1,0.8-1.9,1.4-2.5,2.1c-0.6,0.6-1.1,0.9-1.4,0.9c-0.3,0-0.5-0.2-0.8-0.5L280.7,541.4z M306,556.5c-8.7,0.3-15.1,1.4-19.2,3.2
			c-4.1,1.9-6.2,4.5-6.2,7.9c0,1.6,0.3,2.9,0.8,4.1c0.5,1.1,1.2,2.1,2.1,2.9c0.9,0.8,1.9,1.3,3,1.7c1.1,0.4,2.3,0.5,3.4,0.5
			c1.8,0,3.5-0.2,5-0.6c1.5-0.4,2.9-1,4.2-1.7s2.5-1.6,3.6-2.5s2.2-2,3.2-3.1V556.5z"/>
		<path class="st49" d="M320.9,543.6c2-2.7,4.3-4.9,7.1-6.5c2.7-1.6,5.7-2.4,9-2.4c2.4,0,4.4,0.4,6.2,1.1c1.8,0.7,3.2,1.8,4.4,3.1
			s2,3,2.6,5s0.9,4.2,0.9,6.7v27.1h-2.3v-27.1c0-2.2-0.2-4.2-0.7-5.9c-0.5-1.7-1.2-3.2-2.3-4.5c-1-1.2-2.3-2.2-3.8-2.8
			c-1.5-0.6-3.3-1-5.4-1c-3.1,0-6,0.8-8.6,2.4c-2.6,1.6-5,3.9-7,6.7v32.1h-2.3v-42.4h1.1c0.5,0,0.8,0.3,0.9,0.9L320.9,543.6z"/>
		<path class="st49" d="M389.3,540l-0.3,0.2c-0.1,0.1-0.2,0.1-0.3,0.1c-0.2,0-0.6-0.2-1.1-0.6c-0.5-0.4-1.2-0.8-2-1.3
			c-0.9-0.5-2-0.9-3.3-1.3c-1.3-0.4-2.9-0.6-4.8-0.6c-2.6,0-5,0.5-7,1.4c-2.1,0.9-3.8,2.3-5.2,4c-1.4,1.7-2.5,3.9-3.2,6.3
			c-0.7,2.5-1.1,5.2-1.1,8.3c0,3.2,0.4,6,1.1,8.5c0.8,2.5,1.8,4.6,3.2,6.3c1.4,1.7,3.1,3,5,3.9c2,0.9,4.1,1.3,6.6,1.3
			c2.2,0,4-0.3,5.5-0.8c1.5-0.5,2.7-1.1,3.7-1.7c1-0.6,1.7-1.2,2.2-1.7c0.5-0.5,0.9-0.8,1.1-0.8c0.2,0,0.4,0.1,0.6,0.3l0.5,0.6
			c-0.5,0.7-1.2,1.4-2.1,2.1c-0.9,0.7-2,1.3-3.1,1.8s-2.5,1-4,1.3c-1.4,0.3-3,0.5-4.6,0.5c-2.7,0-5.2-0.5-7.4-1.5
			c-2.2-1-4.1-2.4-5.7-4.3c-1.6-1.9-2.8-4.1-3.6-6.8c-0.9-2.7-1.3-5.7-1.3-9.2c0-3.3,0.4-6.3,1.3-8.9c0.8-2.7,2.1-5,3.7-6.9
			c1.6-1.9,3.6-3.4,5.9-4.5c2.3-1.1,5-1.6,8-1.6c2.6,0,5,0.4,7.1,1.3c2.1,0.8,3.8,2,5.3,3.3L389.3,540z"/>
		<rect x="397.8" y="535.4" class="st49" width="2.2" height="42.4"/>
		<path class="st49" d="M410.2,541.4c2.1-2.2,4.3-3.8,6.7-5c2.3-1.1,5-1.7,8-1.7c2.2,0,4.1,0.4,5.8,1.1c1.6,0.7,3,1.7,4.1,3
			c1.1,1.3,1.9,2.9,2.4,4.8c0.5,1.9,0.8,4,0.8,6.3v27.9H437c-0.6,0-0.9-0.3-1-0.9l-0.4-6.3c-1.2,1.2-2.4,2.3-3.5,3.3
			c-1.2,1-2.4,1.8-3.7,2.5c-1.3,0.7-2.7,1.2-4.3,1.6c-1.5,0.4-3.2,0.6-5,0.6c-1.3,0-2.7-0.2-4-0.6c-1.3-0.4-2.5-1-3.6-1.9
			c-1.1-0.9-1.9-2-2.6-3.3c-0.6-1.4-1-3-1-4.9c0-1.9,0.5-3.6,1.6-5.1c1.1-1.5,2.7-2.8,5-3.9c2.3-1.1,5.1-2,8.6-2.6
			c3.5-0.6,7.6-1,12.4-1.1v-5c0-4.2-0.9-7.5-2.8-9.9c-1.8-2.4-4.6-3.5-8.2-3.5c-2.2,0-4,0.3-5.5,0.9c-1.5,0.6-2.8,1.3-3.9,2.1
			c-1,0.8-1.9,1.4-2.5,2.1c-0.6,0.6-1.1,0.9-1.4,0.9c-0.3,0-0.5-0.2-0.8-0.5L410.2,541.4z M435.6,556.5c-8.7,0.3-15.1,1.4-19.2,3.2
			c-4.1,1.9-6.2,4.5-6.2,7.9c0,1.6,0.3,2.9,0.8,4.1c0.5,1.1,1.2,2.1,2.1,2.9c0.9,0.8,1.9,1.3,3,1.7c1.1,0.4,2.3,0.5,3.4,0.5
			c1.8,0,3.5-0.2,5-0.6c1.5-0.4,2.9-1,4.2-1.7s2.5-1.6,3.6-2.5s2.2-2,3.2-3.1V556.5z"/>
		<rect x="448.7" y="515.6" class="st49" width="2.2" height="62.2"/>
		<path class="st49" d="M228.4,528.4c0-0.9-0.7-1.6-1.6-1.6s-1.6,0.7-1.6,1.6c0,0.9,0.7,1.6,1.6,1.6S228.4,529.3,228.4,528.4z"/>
		<path class="st49" d="M398,527.1c-0.7,0.6-0.8,1.6-0.2,2.3s1.6,0.8,2.3,0.2c0.7-0.6,0.8-1.6,0.2-2.3S398.7,526.6,398,527.1z"/>
		<polygon class="st4" points="252.2,485.5 291.1,505.8 299.4,514.5 315.5,516.9 331.7,514.5 339.9,505.8 378.8,485.5 433.9,346.1 
			482.5,367.1 513.6,348.4 485.1,333 437.6,336.5 450,290.6 434.2,238 315.5,216.2 196.8,238 181.1,290.6 193.4,336.5 145.9,333 
			117.5,348.4 148.6,367.2 197.2,346.1 		"/>
		<polygon class="st64" points="437.6,336.5 450,290.6 520.3,316.2 		"/>
		<polygon class="st67" points="434.2,238 450,290.6 505.4,237.3 		"/>
		<polygon class="st67" points="520.3,316.2 551,265.7 450,290.6 		"/>
		<polygon class="st64" points="526.3,216.8 450,290.6 551,265.7 		"/>
		<polygon class="st65" points="526.3,216.8 558.5,106.1 551,265.7 		"/>
		<polygon class="st66" points="589.4,197.7 558.5,106.1 551,265.7 		"/>
		<polygon class="st64" points="520.3,316.2 573.2,287.6 551,265.7 		"/>
		<polygon class="st65" points="589.4,197.7 573.2,287.6 551,265.7 		"/>
		<polygon class="st9" points="450,290.6 315.5,369.5 357.5,388.7 408.4,383.4 437.6,336.5 		"/>
		<polygon class="st3" points="408.4,383.4 416.1,391.5 378.8,485.5 388.3,385.5 		"/>
		<polygon class="st4" points="357.5,388.7 315.5,369.5 378.8,485.5 		"/>
		<polygon class="st13" points="434.2,238 450,290.6 315.5,216.2 		"/>
		<polygon class="st3" points="437.6,336.5 416.1,391.5 408.4,383.4 		"/>
		<polygon class="st10" points="388.3,385.5 357.5,388.7 378.8,485.5 		"/>
		<polygon class="st3" points="339.9,505.8 341.4,496.9 371.8,472.4 378.8,485.5 		"/>
		<polygon class="st9" points="352.7,436.5 315.5,436.5 315.5,516.9 331.7,514.5 339.9,505.8 371.8,472.4 		"/>
		<polygon class="st3" points="315.5,369.5 315.5,436.5 352.7,436.5 		"/>
		<polygon class="st64" points="193.4,336.5 181,290.6 110.7,316.2 		"/>
		<polygon class="st67" points="196.8,238 181,290.6 125.5,237.3 		"/>
		<polygon class="st67" points="110.7,316.2 80,265.7 181,290.6 		"/>
		<polygon class="st64" points="104.7,216.8 181,290.6 80,265.7 		"/>
		<polygon class="st65" points="104.7,216.8 72.5,106.1 80,265.7 		"/>
		<polygon class="st66" points="41.6,197.7 72.5,106.1 80,265.7 		"/>
		<polygon class="st64" points="110.7,316.2 57.8,287.6 80,265.7 		"/>
		<polygon class="st65" points="41.6,197.7 57.8,287.6 80,265.7 		"/>
		<polygon class="st9" points="181,290.6 315.5,369.5 273.5,388.7 222.6,383.4 193.4,336.5 		"/>
		<polygon class="st13" points="196.8,238 181,290.6 315.5,216.2 		"/>
		<polygon class="st3" points="193.4,336.5 214.9,391.5 222.6,383.4 		"/>
		<polygon class="st3" points="222.6,383.4 214.9,391.5 252.2,485.5 242.7,385.5 		"/>
		<polygon class="st4" points="273.5,388.7 315.5,369.5 252.2,485.5 		"/>
		<polygon class="st10" points="242.7,385.5 273.5,388.7 252.2,485.5 		"/>
		<polygon class="st3" points="291.1,505.8 289.6,496.9 259.2,472.4 252.2,485.5 		"/>
		<polygon class="st9" points="278.3,436.5 315.5,436.5 315.5,516.9 299.3,514.5 291.1,505.8 259.2,472.4 		"/>
		<polygon class="st3" points="315.5,369.5 315.5,436.5 278.3,436.5 		"/>
		<rect x="309.2" y="364" class="st3" width="12.7" height="19"/>
		<polygon class="st3" points="450,290.6 315.5,216.2 315.5,369.5 		"/>
		<polygon class="st3" points="181,290.6 315.5,216.2 315.5,369.5 		"/>
		<polygon class="st80" points="388.3,256.5 336.6,292.9 315.5,216.2 		"/>
		<polygon class="st80" points="242.7,256.5 294.4,292.9 315.5,216.2 		"/>
		<polygon class="st80" points="294.4,292.9 315.5,216.2 336.6,292.9 		"/>
		<polygon class="st4" points="117.5,348.4 148.6,367.2 176.7,355 		"/>
		<polygon class="st3" points="145.9,333 117.5,348.4 176.7,355 		"/>
		<polygon class="st9" points="197.2,346.1 145.9,333 176.7,355 		"/>
		<polygon class="st10" points="193.4,336.5 145.9,333 197.2,346.1 		"/>
		<polygon class="st4" points="513.5,348.4 482.4,367.1 454.3,355 		"/>
		<polygon class="st3" points="485.1,333 513.5,348.4 454.3,355 		"/>
		<polygon class="st9" points="433.9,346.1 485.1,333 454.3,355 		"/>
		<polygon class="st10" points="437.6,336.5 485.1,333 433.9,346.1 		"/>
		<polygon class="st0" points="284.7,457.7 294.2,462.2 287.2,489.7 		"/>
		<polygon class="st0" points="345.9,457.7 336.4,462.2 343.4,489.7 		"/>
	</g>
</g>
</svg>
